<?xml version="1.0" encoding="UTF-8"?>
<svg version="1.1" xmlns="http://www.w3.org/2000/svg" width="252" height="151">
<path d="M0 0 C1.04542969 -0.02449219 2.09085938 -0.04898437 3.16796875 -0.07421875 C4.67810547 -0.08001953 4.67810547 -0.08001953 6.21875 -0.0859375 C7.13591797 -0.09415527 8.05308594 -0.10237305 8.99804688 -0.11083984 C12.32280591 0.53477593 13.35448397 1.79043278 15.5 4.375 C16.20207214 6.82341003 16.20207214 6.82341003 16.48901367 9.58666992 C16.66390572 11.14299385 16.66390572 11.14299385 16.84233093 12.73075867 C16.94979141 13.84441299 17.05725189 14.95806732 17.16796875 16.10546875 C17.29311356 17.25163162 17.41825836 18.39779449 17.54719543 19.57868958 C17.94381669 23.2384171 18.31652896 26.90009141 18.6875 30.5625 C19.07371218 34.23499186 19.46480035 37.90690371 19.85993958 41.57844543 C20.10434307 43.86366791 20.34266899 46.14954967 20.57450867 48.43608093 C20.68164688 49.46417374 20.7887851 50.49226654 20.89916992 51.55151367 C21.03762581 52.91574715 21.03762581 52.91574715 21.17887878 54.30754089 C21.28960199 56.36133564 21.28960199 56.36133564 22.5 57.375 C24.24983121 54.02422569 25.99674991 50.6719474 27.74124146 47.31838989 C28.37149668 46.10725184 29.00225351 44.89637468 29.6335144 43.6857605 C33.21889604 36.8064833 36.75480429 29.9097421 40.1484375 22.93359375 C40.72311768 21.75845215 41.29779785 20.58331055 41.88989258 19.37255859 C42.98603587 17.12139291 44.07219896 14.86533398 45.1472168 12.60400391 C45.89612183 11.06945557 45.89612183 11.06945557 46.66015625 9.50390625 C47.30416382 8.15921265 47.30416382 8.15921265 47.96118164 6.78735352 C49.82880899 3.85953726 51.56243567 2.23224565 54.5 0.375 C57.40673828 -0.11083984 57.40673828 -0.11083984 60.5703125 -0.0859375 C61.71371094 -0.08207031 62.85710937 -0.07820312 64.03515625 -0.07421875 C65.81212891 -0.03748047 65.81212891 -0.03748047 67.625 0 C68.81738281 0.00128906 70.00976562 0.00257812 71.23828125 0.00390625 C80.07820568 0.09380379 80.07820568 0.09380379 83.5 2.375 C82.9592902 6.90307866 81.80471796 10.12596183 79.55078125 14.078125 C78.94943359 15.14160156 78.34808594 16.20507812 77.72851562 17.30078125 C77.09623047 18.39777344 76.46394531 19.49476562 75.8125 20.625 C74.89307617 22.24728516 74.89307617 22.24728516 73.95507812 23.90234375 C70.23081344 30.45041463 66.40793129 36.93500405 62.5 43.375 C63.87285156 43.55675781 63.87285156 43.55675781 65.2734375 43.7421875 C66.46195312 43.90976562 67.65046875 44.07734375 68.875 44.25 C70.65003906 44.49363281 70.65003906 44.49363281 72.4609375 44.7421875 C75.5 45.375 75.5 45.375 77.5 47.375 C77.17885404 51.69522255 75.97294931 54.82371241 73.83203125 58.55078125 C73.27563965 59.53079102 72.71924805 60.51080078 72.14599609 61.52050781 C71.54094238 62.56561523 70.93588867 63.61072266 70.3125 64.6875 C69.02967139 66.93864452 67.74712728 69.1899512 66.46484375 71.44140625 C65.7994424 72.60309952 65.13391483 73.7647205 64.46826172 74.92626953 C61.99012143 79.26839428 59.55209903 83.63214729 57.11791992 87.99902344 C54.81709247 92.12562305 52.50440131 96.24550616 50.19042969 100.36474609 C49.06465651 102.36948083 47.94030399 104.37501402 46.81738281 106.38134766 C45.21745252 109.23674598 43.60982359 112.0876703 42 114.9375 C41.53190918 115.77571289 41.06381836 116.61392578 40.58154297 117.47753906 C39.26117915 119.80414216 37.90065746 122.09592162 36.5 124.375 C36.03980469 125.13151855 35.57960937 125.88803711 35.10546875 126.66748047 C32.59613773 130.42894061 31.12652391 132.12036996 26.84765625 133.859375 C21.58944595 134.71428725 16.25085648 134.66616222 10.9375 134.625 C9.93525391 134.63273438 8.93300781 134.64046875 7.90039062 134.6484375 C2.41711739 134.63399833 -2.40215899 134.49184331 -7.5 132.375 C-10.72559339 129.09326803 -11.28619145 125.50731582 -11.94213867 121.11547852 C-12.0596196 120.39140808 -12.17710052 119.66733765 -12.29814148 118.92132568 C-12.68257218 116.5338145 -13.05047804 114.14407858 -13.41796875 111.75390625 C-13.68183046 110.08994087 -13.94659899 108.42611905 -14.2122345 106.76243591 C-14.76626606 103.27750123 -15.31274367 99.79149766 -15.85327148 96.30444336 C-16.54549625 91.83950718 -17.25105875 87.37681643 -17.96161938 82.91476536 C-18.5080909 79.47948131 -19.05015954 76.04351528 -19.59063148 72.60728264 C-19.84946364 70.96176651 -20.1090287 69.31636549 -20.36934471 67.67108345 C-20.73230337 65.36930518 -21.08998628 63.06677045 -21.44604492 60.76391602 C-21.55354065 60.08687119 -21.66103638 59.40982635 -21.77178955 58.71226501 C-22.30221417 55.2423798 -22.75450021 51.88495818 -22.5 48.375 C-20.04420543 45.38533704 -17.41995181 45.10939997 -13.75 44.6875 C-12.33429039 44.57104647 -10.91777182 44.46285338 -9.5 44.375 C-9.68175781 43.65699219 -9.86351562 42.93898437 -10.05078125 42.19921875 C-13.20020966 29.23003408 -16.15905111 15.77570596 -15.5 2.375 C-10.57329291 -0.51331805 -5.5648118 0.00686167 0 0 Z M13.5 89.375 C14.16 94.655 14.82 99.935 15.5 105.375 C17.5894988 102.2407518 19.06445886 99.11390554 20.625 95.6875 C21.16382813 94.50800781 21.70265625 93.32851562 22.2578125 92.11328125 C22.66773438 91.20964844 23.07765625 90.30601563 23.5 89.375 C20.2 89.375 16.9 89.375 13.5 89.375 Z " fill="#CF660D" transform="translate(35.5,10.625)"/>
<path d="M0 0 C1.04542969 -0.02449219 2.09085938 -0.04898437 3.16796875 -0.07421875 C4.67810547 -0.08001953 4.67810547 -0.08001953 6.21875 -0.0859375 C7.13591797 -0.09415527 8.05308594 -0.10237305 8.99804688 -0.11083984 C12.32280591 0.53477593 13.35448397 1.79043278 15.5 4.375 C16.20207214 6.82341003 16.20207214 6.82341003 16.48901367 9.58666992 C16.66390572 11.14299385 16.66390572 11.14299385 16.84233093 12.73075867 C16.94979141 13.84441299 17.05725189 14.95806732 17.16796875 16.10546875 C17.29311356 17.25163162 17.41825836 18.39779449 17.54719543 19.57868958 C17.94381669 23.2384171 18.31652896 26.90009141 18.6875 30.5625 C19.07371218 34.23499186 19.46480035 37.90690371 19.85993958 41.57844543 C20.10434307 43.86366791 20.34266899 46.14954967 20.57450867 48.43608093 C20.68164688 49.46417374 20.7887851 50.49226654 20.89916992 51.55151367 C21.03762581 52.91574715 21.03762581 52.91574715 21.17887878 54.30754089 C21.28960199 56.36133564 21.28960199 56.36133564 22.5 57.375 C24.24983121 54.02422569 25.99674991 50.6719474 27.74124146 47.31838989 C28.37149668 46.10725184 29.00225351 44.89637468 29.6335144 43.6857605 C33.21889604 36.8064833 36.75480429 29.9097421 40.1484375 22.93359375 C40.72311768 21.75845215 41.29779785 20.58331055 41.88989258 19.37255859 C42.98603587 17.12139291 44.07219896 14.86533398 45.1472168 12.60400391 C45.64648682 11.58097168 46.14575684 10.55793945 46.66015625 9.50390625 C47.30416382 8.15921265 47.30416382 8.15921265 47.96118164 6.78735352 C49.82880899 3.85953726 51.56243567 2.23224565 54.5 0.375 C57.40673828 -0.11083984 57.40673828 -0.11083984 60.5703125 -0.0859375 C61.71371094 -0.08207031 62.85710937 -0.07820312 64.03515625 -0.07421875 C65.81212891 -0.03748047 65.81212891 -0.03748047 67.625 0 C68.81738281 0.00128906 70.00976562 0.00257812 71.23828125 0.00390625 C80.07820568 0.09380379 80.07820568 0.09380379 83.5 2.375 C82.95879766 6.93138415 81.7805652 10.17051173 79.515625 14.1484375 C78.90976563 15.2209375 78.30390625 16.2934375 77.6796875 17.3984375 C76.72449219 19.05746094 76.72449219 19.05746094 75.75 20.75 C75.12867187 21.84828125 74.50734375 22.9465625 73.8671875 24.078125 C64.24960741 41.00019629 64.24960741 41.00019629 61.5 42.375 C59.54457016 42.39374214 57.58906456 42.41012927 55.63354492 42.40991211 C48.49887104 42.41337309 48.49887104 42.41337309 41.9609375 44.8671875 C38.22255349 48.96788185 36.15180939 53.88479052 34.32421875 59.078125 C33.53312401 61.28269233 32.58798976 63.30354351 31.5 65.375 C30.51 65.375 29.52 65.375 28.5 65.375 C26.38991072 70.50922646 24.62037198 75.75209968 22.81640625 81 C20.47741855 86.99669249 20.47741855 86.99669249 18.5 89.375 C15.39282227 89.50390625 15.39282227 89.50390625 12.5 89.375 C12.38930176 88.25005127 12.27860352 87.12510254 12.16455078 85.96606445 C11.7507879 81.78137729 11.32728666 77.59772265 10.90087891 73.41430664 C10.71789223 71.60565333 10.53752617 69.79673285 10.35986328 67.98754883 C10.10361882 65.38287403 9.8378777 62.77931447 9.5703125 60.17578125 C9.49313995 59.37038406 9.41596741 58.56498688 9.3364563 57.73518372 C8.782494 52.46521337 8.13073729 48.20957945 4.5 44.125 C0.29633494 41.67286205 -3.70456167 41.56123061 -8.5 41.375 C-8.83 40.055 -9.16 38.735 -9.5 37.375 C-10.16 37.375 -10.82 37.375 -11.5 37.375 C-12.18000722 33.41884099 -12.84151743 29.45979382 -13.5 25.5 C-13.69078125 24.39140625 -13.8815625 23.2828125 -14.078125 22.140625 C-15.17470108 15.48284166 -15.77484065 9.12195612 -15.5 2.375 C-10.57329291 -0.51331805 -5.5648118 0.00686167 0 0 Z " fill="#FCFC08" transform="translate(35.5,10.625)"/>
<path d="M0 0 C0.78503906 -0.01224609 1.57007813 -0.02449219 2.37890625 -0.03710938 C4.42063726 -0.04236254 6.46192251 0.0652982 8.5 0.1875 C11.28986966 2.97736966 11.05685314 5.09476826 11.5 9 C11.58048584 9.69198486 11.66097168 10.38396973 11.74389648 11.09692383 C12.53638387 18.08354786 13.18324804 25.08721745 13.80273438 32.09106445 C14.17175575 36.18247271 14.56189988 40.17774462 15.5 44.1875 C16.9117783 44.72144179 18.32970244 45.23915104 19.75 45.75 C20.93335938 46.18505859 20.93335938 46.18505859 22.140625 46.62890625 C24.71966433 47.23950662 26.05747753 47.17639737 28.5 46.1875 C28.995 45.1975 28.995 45.1975 29.5 44.1875 C28.71625 43.919375 27.9325 43.65125 27.125 43.375 C24.5 42.1875 24.5 42.1875 22.5 39.1875 C22.04814784 35.64799143 22.07890557 33.85423285 24 30.8125 C27.71370023 28.39859485 30.10458631 28.76888917 34.5 29.1875 C35.49 29.8475 36.48 30.5075 37.5 31.1875 C37.5 32.5075 37.5 33.8275 37.5 35.1875 C35.19 35.1875 32.88 35.1875 30.5 35.1875 C30.005 36.1775 30.005 36.1775 29.5 37.1875 C30.49 37.868125 31.48 38.54875 32.5 39.25 C35.28173184 41.55824557 35.46858836 41.98506942 36.0625 45.8125 C35.46862914 49.37572513 35.25338288 50.08558718 32.5 52.1875 C30.30859375 52.734375 30.30859375 52.734375 27.9375 52.9375 C27.15246094 53.01484375 26.36742187 53.0921875 25.55859375 53.171875 C23.5 53.1875 23.5 53.1875 21.5 52.1875 C21.37625 52.97125 21.2525 53.755 21.125 54.5625 C20.5 57.1875 20.5 57.1875 18.5 59.1875 C15.80837575 59.41302238 13.25330256 59.5118329 10.5625 59.5 C9.83353516 59.51611328 9.10457031 59.53222656 8.35351562 59.54882812 C3.05997393 59.55368013 3.05997393 59.55368013 0.55859375 57.91796875 C-1.85292128 53.97589805 -1.75753268 49.53163503 -2.03515625 45.015625 C-2.07813339 44.3332074 -2.12111053 43.65078979 -2.16539001 42.94769287 C-2.30124345 40.7778284 -2.43194244 38.60768891 -2.5625 36.4375 C-2.65395645 34.96221844 -2.74574956 33.48695771 -2.83789062 32.01171875 C-3.06249426 28.40387893 -3.28247766 24.79577447 -3.5 21.1875 C-7.65138057 30.0568176 -11.60592076 38.98782584 -15.4375 48 C-15.96308921 49.22916264 -16.48905328 50.45816506 -17.01538086 51.68701172 C-19.2676614 56.94781809 -21.51314262 62.21100053 -23.7265625 67.48828125 C-24.33842379 68.92973754 -24.95039126 70.37114877 -25.5625 71.8125 C-26.06910156 73.02164063 -26.57570312 74.23078125 -27.09765625 75.4765625 C-28.5 78.1875 -28.5 78.1875 -31.5 80.1875 C-34.34765625 80.453125 -34.34765625 80.453125 -37.5625 80.4375 C-38.62597656 80.44265625 -39.68945312 80.4478125 -40.78515625 80.453125 C-43.5 80.1875 -43.5 80.1875 -45.5 78.1875 C-45.12428879 74.22929701 -43.62276407 70.9700409 -41.9375 67.40234375 C-41.39585205 66.24863281 -40.8542041 65.09492188 -40.29614258 63.90625 C-39.69755284 62.64577422 -39.09883508 61.38535924 -38.5 60.125 C-37.88193202 58.81402525 -37.26434785 57.50282231 -36.6472168 56.19140625 C-35.31796599 53.36941355 -33.98521607 50.54910924 -32.64990234 47.72998047 C-30.39097354 42.96006192 -28.1425755 38.18521182 -25.89453125 33.41015625 C-22.93920669 27.13660053 -19.98276765 20.86357312 -17.01953125 14.59375 C-16.70756302 13.93242569 -16.39559479 13.27110138 -16.07417297 12.58973694 C-15.22120261 10.786576 -14.36079224 8.98694006 -13.5 7.1875 C-12.97365967 6.06537109 -12.44731934 4.94324219 -11.9050293 3.78710938 C-9.25653609 -1.11317831 -5.00625214 0.00411022 0 0 Z " fill="#43C13A" transform="translate(161.5,65.8125)"/>
<path d="M0 0 C0.7425 0.2475 1.485 0.495 2.25 0.75 C2.59087334 2.29001707 2.92230953 3.83212406 3.25 5.375 C3.435625 6.23351562 3.62125 7.09203125 3.8125 7.9765625 C4.93487172 15.09159753 3.35880627 19.61443353 0.453125 26.0234375 C0.06308289 26.90601227 -0.32695923 27.78858704 -0.7288208 28.69790649 C-1.97559239 31.5116423 -3.23774973 34.31817937 -4.5 37.125 C-5.33430504 39.00477736 -6.16764852 40.8849818 -7 42.765625 C-17.05643223 65.40321612 -17.05643223 65.40321612 -19.75 66.75 C-21.7472542 66.87199138 -23.74905981 66.92547512 -25.75 66.9375 C-26.8225 66.95167969 -27.895 66.96585937 -29 66.98046875 C-31.75 66.75 -31.75 66.75 -33.75 64.75 C-33.37827676 60.66282502 -31.75499824 57.29094172 -30.01171875 53.61328125 C-29.59626045 52.72993858 -29.59626045 52.72993858 -29.17240906 51.82875061 C-28.26597101 49.90416323 -27.35195031 47.98329172 -26.4375 46.0625 C-25.16082594 43.36419367 -23.88714351 40.6644784 -22.61328125 37.96484375 C-22.29033081 37.28194275 -21.96738037 36.59904175 -21.63464355 35.89544678 C-19.47774692 31.32549675 -17.36952956 26.7358584 -15.29296875 22.12890625 C-14.75776611 20.94707764 -14.22256348 19.76524902 -13.67114258 18.54760742 C-12.66028849 16.30993752 -11.65593714 14.06931566 -10.65893555 11.82543945 C-10.20172119 10.81827881 -9.74450684 9.81111816 -9.2734375 8.7734375 C-8.88075684 7.89606934 -8.48807617 7.01870117 -8.08349609 6.11474609 C-6.02961158 2.47250416 -4.40750853 -0.40068259 0 0 Z " fill="#40C237" transform="translate(149.75,79.25)"/>
<path d="M0 0 C0.87785156 0.01546875 1.75570312 0.0309375 2.66015625 0.046875 C4.9375 0.25 4.9375 0.25 6.9375 1.25 C6.34380383 8.69161784 5.16599931 15.92180278 3.72265625 23.2421875 C3.39895302 24.90473068 3.39895302 24.90473068 3.06871033 26.6008606 C2.61460656 28.9257661 2.15815646 31.25021444 1.69946289 33.57421875 C0.99823828 37.13394327 0.30828323 40.69573165 -0.38085938 44.2578125 C-0.82484446 46.52357014 -1.2694829 48.78919988 -1.71484375 51.0546875 C-1.92012192 52.11823456 -2.12540009 53.18178162 -2.3368988 54.27755737 C-2.53372757 55.26603668 -2.73055634 56.25451599 -2.93334961 57.27294922 C-3.10354111 58.13991425 -3.2737326 59.00687927 -3.44908142 59.90011597 C-4.07099409 62.28253917 -4.73774145 64.17267058 -6.0625 66.25 C-8.70690639 67.1314688 -10.34310752 67.41174818 -13.0625 67.4375 C-13.743125 67.45167969 -14.42375 67.46585937 -15.125 67.48046875 C-17.0625 67.25 -17.0625 67.25 -20.0625 65.25 C-18.5651342 56.97298216 -17.03212998 48.70281075 -15.47442627 40.43695068 C-15.19271694 38.94133254 -14.91161753 37.44559942 -14.63104248 35.94976807 C-13.73296018 31.16579785 -12.82110699 26.38476065 -11.89260864 21.6065979 C-11.58959005 20.03753744 -11.29064773 18.46768418 -10.99581909 16.89706421 C-10.57853948 14.67908225 -10.14654738 12.46444442 -9.7109375 10.25 C-9.46520996 8.97125 -9.21948242 7.6925 -8.96630859 6.375 C-7.41180192 1.00015252 -5.4652856 -0.16098043 0 0 Z " fill="#2252A5" transform="translate(114.0625,76.75)"/>
<path d="M0 0 C0.33 0.99 0.66 1.98 1 3 C2.65 3 4.3 3 6 3 C6.103125 3.639375 6.20625 4.27875 6.3125 4.9375 C6.6528125 5.9584375 6.6528125 5.9584375 7 7 C7.99 7.33 8.98 7.66 10 8 C9.67 9.32 9.34 10.64 9 12 C7.68 12 6.36 12 5 12 C4.67 14.31 4.34 16.62 4 19 C5.32 19.66 6.64 20.32 8 21 C7.34 22.32 6.68 23.64 6 25 C-0.875 24.125 -0.875 24.125 -2 23 C-2.14475933 19.1638778 -2.17661508 15.67692213 -1 12 C-2.32 12.33 -3.64 12.66 -5 13 C-5.25394531 14.13179687 -5.50789062 15.26359375 -5.76953125 16.4296875 C-6.11656252 17.91160483 -6.46425313 19.39336786 -6.8125 20.875 C-6.97814453 21.62136719 -7.14378906 22.36773437 -7.31445312 23.13671875 C-8.66015625 28.7734375 -8.66015625 28.7734375 -12 31 C-14.6875 31.125 -14.6875 31.125 -17 31 C-17.33 29.35 -17.66 27.7 -18 26 C-17.01 25.67 -16.02 25.34 -15 25 C-13.23237408 19.41802341 -12.10715338 14.67853985 -14 9 C-13.566875 8.62875 -13.13375 8.2575 -12.6875 7.875 C-10.79545295 5.94960314 -10.79545295 5.94960314 -9.5 2.875 C-7.08477384 -1.75418347 -4.58301173 -1.11478664 0 0 Z M0 4 C-1.98 4.99 -1.98 4.99 -4 6 C-2.68 6.33 -1.36 6.66 0 7 C0 6.01 0 5.02 0 4 Z " fill="#173B7B" transform="translate(230,94)"/>
<path d="M0 0 C0.495 0.99 0.495 0.99 1 2 C0.67 2.66 0.34 3.32 0 4 C-2.8359375 4.37890625 -2.8359375 4.37890625 -6.375 4.5625 C-11.27255474 4.82302499 -11.27255474 4.82302499 -16 6 C-17.19113584 7.58204269 -17.19113584 7.58204269 -18.1640625 9.5859375 C-18.75743408 10.72180298 -18.75743408 10.72180298 -19.36279297 11.88061523 C-19.77932129 12.70376221 -20.19584961 13.52690918 -20.625 14.375 C-21.27879639 15.63775757 -21.27879639 15.63775757 -21.94580078 16.92602539 C-25.47830833 23.80911699 -28.79848878 30.7918574 -31.95556641 37.85498047 C-35.45476698 45.50443401 -35.45476698 45.50443401 -39 48 C-41.25 47.75 -41.25 47.75 -43 47 C-40.17018644 39.10630953 -36.79218859 31.47952403 -33 24 C-32.01 24 -31.02 24 -30 24 C-29.87882812 23.45988281 -29.75765625 22.91976562 -29.6328125 22.36328125 C-27.73388903 15.27162262 -25.00804151 7.29185529 -19.51171875 2.203125 C-13.60294383 -0.62720576 -6.42768628 -0.0506117 0 0 Z " fill="#9C8D02" transform="translate(97,52)"/>
<path d="M0 0 C0.83144531 0.00902344 1.66289063 0.01804688 2.51953125 0.02734375 C4.55481337 0.0507378 6.58994564 0.08660275 8.625 0.125 C7.625 3.125 7.625 3.125 5.625 4.125 C3.66957016 4.14374214 1.71406456 4.16012927 -0.24145508 4.15991211 C-7.37612896 4.16337309 -7.37612896 4.16337309 -13.9140625 6.6171875 C-17.65244651 10.71788185 -19.72319061 15.63479052 -21.55078125 20.828125 C-22.34187599 23.03269233 -23.28701024 25.05354351 -24.375 27.125 C-25.365 27.125 -26.355 27.125 -27.375 27.125 C-29.48508928 32.25922646 -31.25462802 37.50209968 -33.05859375 42.75 C-35.39758145 48.74669249 -35.39758145 48.74669249 -37.375 51.125 C-40.48217773 51.25390625 -40.48217773 51.25390625 -43.375 51.125 C-43.9076386 46.87639233 -44.4240656 42.62596775 -44.9375 38.375 C-45.08896484 37.1684375 -45.24042969 35.961875 -45.39648438 34.71875 C-45.53505859 33.55859375 -45.67363281 32.3984375 -45.81640625 31.203125 C-45.94732666 30.13481445 -46.07824707 29.06650391 -46.21313477 27.96582031 C-46.36108812 25.36916081 -46.18314243 23.57266463 -45.375 21.125 C-45.24222656 21.83527344 -45.10945313 22.54554687 -44.97265625 23.27734375 C-44.79605469 24.19644531 -44.61945312 25.11554688 -44.4375 26.0625 C-44.17646484 27.43728516 -44.17646484 27.43728516 -43.91015625 28.83984375 C-43.59785012 31.07789844 -43.59785012 31.07789844 -42.375 32.125 C-42.28868126 33.46767413 -42.26793527 34.81474322 -42.27734375 36.16015625 C-42.28217773 37.37348633 -42.28217773 37.37348633 -42.28710938 38.61132812 C-42.29548828 39.46146484 -42.30386719 40.31160156 -42.3125 41.1875 C-42.31701172 42.04150391 -42.32152344 42.89550781 -42.32617188 43.77539062 C-42.33799627 45.89195663 -42.35593231 48.00848685 -42.375 50.125 C-41.385 50.125 -40.395 50.125 -39.375 50.125 C-39.87 48.64 -39.87 48.64 -40.375 47.125 C-39.44140625 45.20703125 -39.44140625 45.20703125 -37.9375 42.9375 C-34.61603538 37.69593463 -31.90276264 32.26792356 -29.26782227 26.65942383 C-27.79478683 23.60768273 -26.62104788 21.36928725 -24.19140625 18.95703125 C-21.94411436 16.69040782 -21.78945625 15.31653573 -21.4375 12.1875 C-20.62507229 7.39064423 -19.42910669 5.07344123 -15.375 2.125 C-10.192376 -0.11401883 -5.53266917 -0.11471244 0 0 Z " fill="#DBDA04" transform="translate(91.375,48.875)"/>
<path d="M0 0 C1.0551219 5.80317046 1.52819987 11.48600753 -1 17 C-4.92645971 19.66797903 -8.40239323 19.29191154 -13 19 C-13.99 18.34 -14.98 17.68 -16 17 C-15.74357696 15.08135229 -15.46926564 13.16509006 -15.1875 11.25 C-15.03667969 10.18265625 -14.88585937 9.1153125 -14.73046875 8.015625 C-13.97478558 4.89590623 -13.19227567 3.30962376 -11 1 C-6.94026376 -0.85335785 -4.28798683 -1.2611726 0 0 Z " fill="#7093D1" transform="translate(110,125)"/>
<path d="M0 0 C2.4375 1.5 2.4375 1.5 4 4 C4.44497257 8.7612065 3.60353322 12.10384462 0.9375 16.0625 C-3.17398459 18.77433026 -5.12984459 18.69573649 -10 18 C-12.5 16.4375 -12.5 16.4375 -14 14 C-14.48490243 10.19005233 -14.33713606 7.78073615 -12.8125 4.25 C-9.03551419 -0.43867204 -5.83876521 -1.8634357 0 0 Z M-6 5 C-8.1519437 8.22791555 -8.20086443 9.28400809 -8 13 C-6.05000871 12.80528889 -6.05000871 12.80528889 -4 12 C-2.27898465 9.41847698 -2 8.15081975 -2 5 C-3.32 5 -4.64 5 -6 5 Z " fill="#264486" transform="translate(212,101)"/>
<path d="M0 0 C0.99 0.66 1.98 1.32 3 2 C3 3.32 3 4.64 3 6 C0.69 6 -1.62 6 -4 6 C-4.33 6.66 -4.66 7.32 -5 8 C-4.01 8.680625 -3.02 9.36125 -2 10.0625 C0.78173184 12.37074557 0.96858836 12.79756942 1.5625 16.625 C0.96857012 20.18857928 0.75648718 20.90040397 -2 23 C-4.2265625 23.546875 -4.2265625 23.546875 -6.625 23.75 C-7.42164063 23.82734375 -8.21828125 23.9046875 -9.0390625 23.984375 C-9.68617188 23.98953125 -10.33328125 23.9946875 -11 24 C-12 23 -12 23 -12.0625 20.4375 C-12.041875 19.633125 -12.02125 18.82875 -12 18 C-10.824375 18.0928125 -10.824375 18.0928125 -9.625 18.1875 C-8.75875 18.125625 -7.8925 18.06375 -7 18 C-6.34 17.01 -5.68 16.02 -5 15 C-5.78375 14.731875 -6.5675 14.46375 -7.375 14.1875 C-10 13 -10 13 -12 10 C-12.45185216 6.46049143 -12.42109443 4.66673285 -10.5 1.625 C-6.78629977 -0.78890515 -4.39541369 -0.41861083 0 0 Z " fill="#0B3780" transform="translate(196,95)"/>
<path d="M0 0 C0.33 0.99 0.66 1.98 1 3 C2.65 3 4.3 3 6 3 C6.33 4.32 6.66 5.64 7 7 C7.66 7 8.32 7 9 7 C8.67 8.32 8.34 9.64 8 11 C5.43721301 11.05420701 2.87558517 11.09377007 0.3125 11.125 C-0.40873047 11.14175781 -1.12996094 11.15851563 -1.87304688 11.17578125 C-6.04876781 11.21391569 -9.2494138 10.8789919 -13 9 C-13 8.34 -13 7.68 -13 7 C-12.34 6.67 -11.68 6.34 -11 6 C-10.525625 5.01 -10.05125 4.02 -9.5625 3 C-7.1043319 -1.71968275 -4.69407908 -1.14180302 0 0 Z M0 4 C-1.98 4.99 -1.98 4.99 -4 6 C-2.68 6.33 -1.36 6.66 0 7 C0 6.01 0 5.02 0 4 Z " fill="#3A5C9B" transform="translate(230,94)"/>
<path d="M0 0 C0.495 0.99 0.495 0.99 1 2 C0.67 2.66 0.34 3.32 0 4 C-1.85766602 4.41064453 -1.85766602 4.41064453 -4.25390625 4.6328125 C-5.10791016 4.71660156 -5.96191406 4.80039062 -6.84179688 4.88671875 C-7.73962891 4.96535156 -8.63746094 5.04398438 -9.5625 5.125 C-10.91504883 5.25455078 -10.91504883 5.25455078 -12.29492188 5.38671875 C-14.52929918 5.59951659 -16.76413615 5.80354467 -19 6 C-19.20496094 6.55429687 -19.40992187 7.10859375 -19.62109375 7.6796875 C-19.89050781 8.40414062 -20.15992187 9.12859375 -20.4375 9.875 C-20.70433594 10.59429687 -20.97117187 11.31359375 -21.24609375 12.0546875 C-22 14 -22 14 -23 16 C-23.66 16 -24.32 16 -25 16 C-25.268125 16.9075 -25.53625 17.815 -25.8125 18.75 C-26.90131632 21.72991834 -27.86391101 23.68590359 -30 26 C-30.66 26 -31.32 26 -32 26 C-32.17015625 26.58007812 -32.3403125 27.16015625 -32.515625 27.7578125 C-34.08097511 32.80356871 -35.84684491 36.75955006 -39 41 C-39.33 40.34 -39.66 39.68 -40 39 C-39.07421875 36.5390625 -39.07421875 36.5390625 -37.6875 33.625 C-37.23761719 32.66851562 -36.78773437 31.71203125 -36.32421875 30.7265625 C-35.23131415 28.47627515 -34.12721261 26.2332569 -33 24 C-32.01 24 -31.02 24 -30 24 C-29.87882812 23.45988281 -29.75765625 22.91976562 -29.6328125 22.36328125 C-27.73388903 15.27162262 -25.00804151 7.29185529 -19.51171875 2.203125 C-13.60294383 -0.62720576 -6.42768628 -0.0506117 0 0 Z " fill="#A09A03" transform="translate(97,52)"/>
<path d="M0 0 C0.66 0.99 1.32 1.98 2 3 C4.19807583 3.35839008 4.19807583 3.35839008 6.6875 3.3125 C11.26482524 3.70995226 14.31170951 4.43365636 17.6640625 7.66796875 C20.45654273 12.54256142 20.4846174 18.45080038 20.84301758 23.95996094 C21.00245881 26.03195299 21.25587273 28.07380027 21.53515625 30.1328125 C21.93725684 33.47801912 22.10453302 36.63735848 22.0625 40 C22.05347656 40.94875 22.04445312 41.8975 22.03515625 42.875 C22.02355469 43.57625 22.01195312 44.2775 22 45 C21.67 45 21.34 45 21 45 C20.86722656 43.72382812 20.73445313 42.44765625 20.59765625 41.1328125 C20.41947335 39.46352004 20.24107686 37.79425036 20.0625 36.125 C19.97548828 35.28324219 19.88847656 34.44148438 19.79882812 33.57421875 C19.71181641 32.76855469 19.62480469 31.96289062 19.53515625 31.1328125 C19.456604 30.38918457 19.37805176 29.64555664 19.29711914 28.87939453 C19.08362653 26.91553684 19.08362653 26.91553684 18 25 C17.72304178 21.98423267 17.55347062 18.96861888 17.37890625 15.9453125 C17.01376813 13.10702236 16.33229937 11.47803018 15 9 C11.41637224 9.13910487 7.83318502 9.28745413 4.25 9.4375 C3.23421875 9.47681641 2.2184375 9.51613281 1.171875 9.55664062 C0.1921875 9.59853516 -0.7875 9.64042969 -1.796875 9.68359375 C-2.69760742 9.72025146 -3.59833984 9.75690918 -4.52636719 9.79467773 C-6.79596339 9.98306407 -8.81562887 10.37366501 -11 11 C-9.30820672 8.95780294 -8.36272334 8.08206694 -5.73828125 7.48828125 C-4.93777344 7.43027344 -4.13726562 7.37226562 -3.3125 7.3125 C-2.50425781 7.24675781 -1.69601563 7.18101563 -0.86328125 7.11328125 C0.05904297 7.05720703 0.05904297 7.05720703 1 7 C0.67 4.69 0.34 2.38 0 0 Z " fill="#D48D15" transform="translate(25,48)"/>
<path d="M0 0 C0.33 0.99 0.66 1.98 1 3 C3.31 3 5.62 3 8 3 C7.34 6.63 6.68 10.26 6 14 C5.34 14 4.68 14 4 14 C4 13.01 4 12.02 4 11 C0.37 11.33 -3.26 11.66 -7 12 C-7.33 12.99 -7.66 13.98 -8 15 C-9.759283 10.42586421 -7.80816034 6.99346217 -6.0625 2.6875 C-4.524295 0.24446853 -2.79094865 0 0 0 Z " fill="#3862A9" transform="translate(106,114)"/>
<path d="M0 0 C1.32 0 2.64 0 4 0 C4 0.66 4 1.32 4 2 C6.39719432 2.67958603 6.39719432 2.67958603 9 3 C9.66 2.34 10.32 1.68 11 1 C11.99 1.33 12.98 1.66 14 2 C13.03644647 12.55808656 13.03644647 12.55808656 12 17 C11.67 17 11.34 17 11 17 C10.67 14.69 10.34 12.38 10 10 C6.53058454 10.45822468 3.32604951 10.89131683 0 12 C-0.76173392 7.6835078 -1.16063604 4.25566547 0 0 Z " fill="#335DA6" transform="translate(105,86)"/>
<path d="M0 0 C2.30039124 3.45058686 2.4738275 5.94095502 3 10 C3.33 10.33 3.66 10.66 4 11 C4.08631874 12.34267413 4.10706473 13.68974322 4.09765625 15.03515625 C4.09282227 16.24848633 4.09282227 16.24848633 4.08789062 17.48632812 C4.07951172 18.33646484 4.07113281 19.18660156 4.0625 20.0625 C4.05798828 20.91650391 4.05347656 21.77050781 4.04882812 22.65039062 C4.03700373 24.76695663 4.01906769 26.88348685 4 29 C4.99 29 5.98 29 7 29 C6.67 28.01 6.34 27.02 6 26 C6.93359375 24.08203125 6.93359375 24.08203125 8.4375 21.8125 C11.39400215 17.13079189 13.92570515 12.33340891 16.375 7.375 C16.73263428 6.65159424 17.09026855 5.92818848 17.45874023 5.18286133 C18.30902565 3.45681301 19.15498504 1.72863466 20 0 C20.66 0 21.32 0 22 0 C21.67 1.98 21.34 3.96 21 6 C20.34 6 19.68 6 19 6 C16.88991072 11.13422646 15.12037198 16.37709968 13.31640625 21.625 C10.97741855 27.62169249 10.97741855 27.62169249 9 30 C5.89282227 30.12890625 5.89282227 30.12890625 3 30 C2.49626829 25.75043359 1.99765954 21.50028144 1.5 17.25 C1.35691406 16.0434375 1.21382812 14.836875 1.06640625 13.59375 C0.93105469 12.43359375 0.79570313 11.2734375 0.65625 10.078125 C0.53056641 9.00981445 0.40488281 7.94150391 0.27539062 6.84082031 C0 4 0 4 0 0 Z " fill="#DAD903" transform="translate(45,70)"/>
<path d="M0 0 C1 2.25 1 2.25 1 5 C-0.4375 8.3125 -0.4375 8.3125 -2 11 C-2.99 11 -3.98 11 -5 11 C-5.66 12.98 -6.32 14.96 -7 17 C-7.33 17 -7.66 17 -8 17 C-8 14.36 -8 11.72 -8 9 C-7.34 9 -6.68 9 -6 9 C-6.2475 8.1028125 -6.2475 8.1028125 -6.5 7.1875 C-7 5 -7 5 -7 2 C-8.65 2.33 -10.3 2.66 -12 3 C-12 2.01 -12 1.02 -12 0 C-16.62 0 -21.24 0 -26 0 C-26 -0.33 -26 -0.66 -26 -1 C-4.80691598 -3.25629792 -4.80691598 -3.25629792 0 0 Z " fill="#D88126" transform="translate(112,57)"/>
<path d="M0 0 C2.31 0 4.62 0 7 0 C7.36757633 6.49384856 7.36757633 6.49384856 5.77734375 8.68359375 C3.58071202 10.31054956 2.08296506 10.52066094 -0.625 10.75 C-1.42164063 10.82734375 -2.21828125 10.9046875 -3.0390625 10.984375 C-3.68617188 10.98953125 -4.33328125 10.9946875 -5 11 C-6 10 -6 10 -6.0625 7.4375 C-6.041875 6.633125 -6.02125 5.82875 -6 5 C-4.35 5 -2.7 5 -1 5 C-0.67 3.35 -0.34 1.7 0 0 Z " fill="#426788" transform="translate(190,108)"/>
<path d="M0 0 C6.15234375 -0.09765625 6.15234375 -0.09765625 8 0 C8.33 0.33 8.66 0.66 9 1 C8.41558623 9.91231005 8.41558623 9.91231005 5 13 C2.17686485 13.37980738 -0.18964024 13.51500992 -3 13.4375 C-4.08667969 13.44813477 -4.08667969 13.44813477 -5.1953125 13.45898438 C-8.25796207 13.42225518 -10.45541467 13.37499493 -13.01953125 11.609375 C-14 10 -14 10 -13.6875 7.8125 C-13.3471875 6.9153125 -13.3471875 6.9153125 -13 6 C-12.34 7.32 -11.68 8.64 -11 10 C-8.89590361 10.02701408 -6.79170822 10.04640223 -4.6875 10.0625 C-3.51574219 10.07410156 -2.34398437 10.08570312 -1.13671875 10.09765625 C2.03059195 10.14899898 2.03059195 10.14899898 5 9 C5.33 6.69 5.66 4.38 6 2 C4.02 2 2.04 2 0 2 C0 1.34 0 0.68 0 0 Z " fill="#4BB143" transform="translate(175,112)"/>
<path d="M0 0 C0.66 0.33 1.32 0.66 2 1 C-1.96 8.26 -5.92 15.52 -10 23 C-11 20 -11 20 -11 18 C-11.66 18 -12.32 18 -13 18 C-13.33 19.65 -13.66 21.3 -14 23 C-14.66 21.68 -15.32 20.36 -16 19 C-14.35 17.02 -12.7 15.04 -11 13 C-10.34 13.66 -9.68 14.32 -9 15 C-8.67 14.01 -8.34 13.02 -8 12 C-7.34 12 -6.68 12 -6 12 C-6 11.01 -6 10.02 -6 9 C-6.99 9.33 -7.98 9.66 -9 10 C-8.34 8.35 -7.68 6.7 -7 5 C-5.35 5.33 -3.7 5.66 -2 6 C-1.34 4.02 -0.68 2.04 0 0 Z " fill="#CC6E1E" transform="translate(107,68)"/>
<path d="M0 0 C0.66 0.33 1.32 0.66 2 1 C1.73495227 4.26892205 1.40216549 5.63439501 -1.0625 7.875 C-5.13080299 9.43307348 -7.74371467 8.79354472 -12 8 C-12.33 6.35 -12.66 4.7 -13 3 C-11.68 2.67 -10.36 2.34 -9 2 C-9 2.99 -9 3.98 -9 5 C-5.54074837 3.7508258 -2.85306797 2.32472205 0 0 Z " fill="#7297D9" transform="translate(212,109)"/>
<path d="M0 0 C0.99 0.99 1.98 1.98 3 3 C1.25 8.75 1.25 8.75 -1 11 C-1.825 11.845625 -2.65 12.69125 -3.5 13.5625 C-6 16 -6 16 -8 17 C-8.6875 14.6875 -8.6875 14.6875 -9 12 C-7.75 10.5625 -7.75 10.5625 -6 9 C-5.505 8.01 -5.01 7.02 -4.5 6 C-3.19258836 3.38517672 -2.18153327 1.86988566 0 0 Z " fill="#C75A07" transform="translate(75,119)"/>
<path d="M0 0 C0 3.62455979 -1.0115798 6.0566425 -2.3125 9.4375 C-2.74175781 10.57058594 -3.17101562 11.70367187 -3.61328125 12.87109375 C-4.84215129 15.64383994 -5.95757679 17.77140417 -8 20 C-8.66 20 -9.32 20 -10 20 C-10.17015625 20.58007812 -10.3403125 21.16015625 -10.515625 21.7578125 C-12.08097511 26.80356871 -13.84684491 30.75955006 -17 35 C-17.33 34.34 -17.66 33.68 -18 33 C-17.07421875 30.5390625 -17.07421875 30.5390625 -15.6875 27.625 C-15.23761719 26.66851562 -14.78773437 25.71203125 -14.32421875 24.7265625 C-13.23131415 22.47627515 -12.12721261 20.2332569 -11 18 C-10.01 18 -9.02 18 -8 18 C-7.88527344 17.46632813 -7.77054688 16.93265625 -7.65234375 16.3828125 C-6.84583919 13.43689764 -5.73073587 10.69679228 -4.5625 7.875 C-4.13066406 6.82054688 -3.69882813 5.76609375 -3.25390625 4.6796875 C-2 2 -2 2 0 0 Z " fill="#ADAC00" transform="translate(75,58)"/>
<path d="M0 0 C0.66 0.66 1.32 1.32 2 2 C3.97392456 1.76307417 3.97392456 1.76307417 6.0625 1.0625 C7.36389736 0.66949212 8.67536892 0.3056841 10 0 C11 1 11 1 11 7 C7.04 7 3.08 7 -1 7 C-0.67 4.69 -0.34 2.38 0 0 Z " fill="#8AB0EF" transform="translate(97,135)"/>
<path d="M0 0 C0.33 0 0.66 0 1 0 C1.33 3.63 1.66 7.26 2 11 C2.66 11 3.32 11 4 11 C4 11.66 4 12.32 4 13 C4.56460937 12.81179687 5.12921875 12.62359375 5.7109375 12.4296875 C9.75809467 11.66998223 13.40833413 13.13739441 17 15 C18.5625 17.6875 18.5625 17.6875 19 20 C15.125 18.125 15.125 18.125 14 17 C12.31816052 16.76712992 10.6287584 16.58735834 8.9375 16.4375 C8.01839844 16.35371094 7.09929688 16.26992188 6.15234375 16.18359375 C5.08693359 16.09271484 5.08693359 16.09271484 4 16 C3.67 14.68 3.34 13.36 3 12 C2.34 12 1.68 12 1 12 C0.67 8.04 0.34 4.08 0 0 Z " fill="#E3E312" transform="translate(23,36)"/>
<path d="M0 0 C0.33 0.99 0.66 1.98 1 3 C1.66 3 2.32 3 3 3 C2.67 4.32 2.34 5.64 2 7 C-3.28 7 -8.56 7 -14 7 C-14.33 6.01 -14.66 5.02 -15 4 C-11.7 3.34 -8.4 2.68 -5 2 C-5 2.66 -5 3.32 -5 4 C-3.68 4 -2.36 4 -1 4 C-0.67 2.68 -0.34 1.36 0 0 Z " fill="#214A99" transform="translate(236,98)"/>
<path d="M0 0 C2.01822917 0.06510417 4.03645833 0.13020833 6.0546875 0.1953125 C6.3846875 1.8453125 6.7146875 3.4953125 7.0546875 5.1953125 C4.7446875 4.8653125 2.4346875 4.5353125 0.0546875 4.1953125 C-0.6053125 5.5153125 -1.2653125 6.8353125 -1.9453125 8.1953125 C-2.9353125 7.8653125 -3.9253125 7.5353125 -4.9453125 7.1953125 C-3.87057023 0.38861147 -3.87057023 0.38861147 0 0 Z " fill="#3A60A8" transform="translate(189.9453125,94.8046875)"/>
<path d="M0 0 C0 0.99 0 1.98 0 3 C-0.66 3 -1.32 3 -2 3 C-2 3.66 -2 4.32 -2 5 C-2.61488281 4.96519531 -3.22976562 4.93039063 -3.86328125 4.89453125 C-4.67152344 4.86746094 -5.47976562 4.84039062 -6.3125 4.8125 C-7.11300781 4.77769531 -7.91351563 4.74289063 -8.73828125 4.70703125 C-11.47851584 5.06198392 -12.29171079 5.89366282 -14 8 C-13.38722388 5.03824877 -12.74627478 3.61941217 -11 1 C-6.93390435 -0.80715362 -4.28086459 -1.25907782 0 0 Z " fill="#557FC9" transform="translate(110,125)"/>
<path d="M0 0 C0.48461538 6.3 0.48461538 6.3 -1.6875 9.4375 C-4.38410809 11.25953249 -5.81126451 11.35430394 -9 11 C-9 9.68 -9 8.36 -9 7 C-8.01 6.67 -7.02 6.34 -6 6 C-5.67 5.01 -5.34 4.02 -5 3 C-4.34 3 -3.68 3 -3 3 C-3 2.34 -3 1.68 -3 1 C-1 0 -1 0 0 0 Z " fill="#7996CD" transform="translate(221,113)"/>
<path d="M0 0 C1.24546405 2.49092811 0.7767578 3.41080733 0 6 C-0.66 6 -1.32 6 -2 6 C-2.42152344 7.05960937 -2.42152344 7.05960937 -2.8515625 8.140625 C-4.0077827 11.01937733 -5.16317969 13.89411774 -6.375 16.75 C-6.77460937 17.71421875 -7.17421875 18.6784375 -7.5859375 19.671875 C-9 22 -9 22 -11.1640625 22.828125 C-11.76992188 22.88484375 -12.37578125 22.9415625 -13 23 C-11.5549439 20.1098878 -10.10932251 17.220086 -8.66015625 14.33203125 C-7.61360402 12.23153935 -6.57815511 10.12544352 -5.55859375 8.01171875 C-5.12675781 7.12097656 -4.69492187 6.23023437 -4.25 5.3125 C-3.86328125 4.50425781 -3.4765625 3.69601563 -3.078125 2.86328125 C-2 1 -2 1 0 0 Z " fill="#9EA000" transform="translate(67,77)"/>
<path d="M0 0 C1.65 0 3.3 0 5 0 C5 0.66 5 1.32 5 2 C6.65 2.33 8.3 2.66 10 3 C9.34 4.32 8.68 5.64 8 7 C1.125 6.125 1.125 6.125 0 5 C-0.04063832 3.33382885 -0.042721 1.66611905 0 0 Z " fill="#5E72A6" transform="translate(228,112)"/>
<path d="M0 0 C1.43565658 4.73437895 1.02809524 9.20222219 0 14 C-1.75 16.625 -1.75 16.625 -4 18 C-6.75 18.25 -6.75 18.25 -9 18 C-8.401875 17.731875 -7.80375 17.46375 -7.1875 17.1875 C-4.8959831 15.94353368 -3.5169063 15.12366882 -2 13 C-1.74951364 9.87450983 -1.74951364 9.87450983 -2 7 C-2.66 7 -3.32 7 -4 7 C-4.33 7.66 -4.66 8.32 -5 9 C-4.75 5.625 -4.75 5.625 -4 2 C-1.9375 0.5625 -1.9375 0.5625 0 0 Z " fill="#3F68AF" transform="translate(222,107)"/>
<path d="M0 0 C1.14298911 2.80734168 1.05509505 3.85975806 -0.07421875 6.734375 C-0.60660156 7.72953125 -1.13898438 8.7246875 -1.6875 9.75 C-2.51701172 11.3278125 -2.51701172 11.3278125 -3.36328125 12.9375 C-3.90339844 13.948125 -4.44351563 14.95875 -5 16 C-5.79744346 17.58043174 -6.59014086 19.16328116 -7.375 20.75 C-7.91125 21.8225 -8.4475 22.895 -9 24 C-9.66 24 -10.32 24 -11 24 C-8.56705598 15.33263693 -4.34217123 7.82828494 0 0 Z " fill="#CD8115" transform="translate(79,60)"/>
<path d="M0 0 C0.99 1.485 0.99 1.485 2 3 C4.54826136 3.41523984 7.01051817 3.43911307 9.58984375 3.49609375 C12 4 12 4 15 8 C8.07 7.505 8.07 7.505 1 7 C0.67 4.69 0.34 2.38 0 0 Z " fill="#B0AB0B" transform="translate(25,48)"/>
<path d="M0 0 C0.99 0 1.98 0 3 0 C3.33 0.66 3.66 1.32 4 2 C4.66 1.67 5.32 1.34 6 1 C8.125 1.4375 8.125 1.4375 10 2 C10 3.98 10 5.96 10 8 C9.67 7.01 9.34 6.02 9 5 C5.37 5.33 1.74 5.66 -2 6 C-2.33 6.99 -2.66 7.98 -3 9 C-3.75 7.25 -3.75 7.25 -4 5 C-2.0625 2.8125 -2.0625 2.8125 0 1 C0 0.67 0 0.34 0 0 Z " fill="#4471BA" transform="translate(101,120)"/>
<path d="M0 0 C2.30039124 3.45058686 2.4738275 5.94095502 3 10 C3.33 10.33 3.66 10.66 4 11 C4.08631874 12.34267413 4.10706473 13.68974322 4.09765625 15.03515625 C4.09282227 16.24848633 4.09282227 16.24848633 4.08789062 17.48632812 C4.07951172 18.33646484 4.07113281 19.18660156 4.0625 20.0625 C4.05798828 20.91650391 4.05347656 21.77050781 4.04882812 22.65039062 C4.03700373 24.76695663 4.01906769 26.88348685 4 29 C5.65 29 7.3 29 9 29 C9 29.33 9 29.66 9 30 C7.02 30 5.04 30 3 30 C2.49626829 25.75043359 1.99765954 21.50028144 1.5 17.25 C1.35691406 16.0434375 1.21382812 14.836875 1.06640625 13.59375 C0.93105469 12.43359375 0.79570313 11.2734375 0.65625 10.078125 C0.53056641 9.00981445 0.40488281 7.94150391 0.27539062 6.84082031 C0 4 0 4 0 0 Z " fill="#F7DD1A" transform="translate(45,70)"/>
<path d="M0 0 C0.66 0 1.32 0 2 0 C4.2450026 9.27934409 4.60672763 18.4993676 5 28 C4.67 28 4.34 28 4 28 C3.3280098 24.08422732 2.66333258 20.1672478 2 16.25 C1.80921875 15.13882813 1.6184375 14.02765625 1.421875 12.8828125 C1.15117187 11.27792969 1.15117187 11.27792969 0.875 9.640625 C0.70742187 8.65610352 0.53984375 7.67158203 0.3671875 6.65722656 C0 4 0 4 0 0 Z " fill="#C67630" transform="translate(13,60)"/>
<path d="M0 0 C3.94727588 -0.17942163 6.5980513 -0.09350689 10 2 C10.33 1.34 10.66 0.68 11 0 C11 1.65 11 3.3 11 5 C8.69 5.33 6.38 5.66 4 6 C3.67 4.68 3.34 3.36 3 2 C2.34 2 1.68 2 1 2 C0.67 2.66 0.34 3.32 0 4 C0 2.68 0 1.36 0 0 Z " fill="#1D51A2" transform="translate(103,112)"/>
<path d="M0 0 C0 0.99 0 1.98 0 3 C-1.28926992 3.36279456 -2.58153272 3.71496698 -3.875 4.0625 C-4.95394531 4.35833984 -4.95394531 4.35833984 -6.0546875 4.66015625 C-8 5 -8 5 -10 4 C-9.6875 2.0625 -9.6875 2.0625 -9 0 C-5.52176885 -1.15941038 -3.54104422 -0.70820884 0 0 Z " fill="#1B4593" transform="translate(212,101)"/>
<path d="M0 0 C0.87785156 0.01546875 1.75570312 0.0309375 2.66015625 0.046875 C4.9375 0.25 4.9375 0.25 6.9375 1.25 C6.9375 3.23 6.9375 5.21 6.9375 7.25 C5.9475 7.745 5.9475 7.745 4.9375 8.25 C4.6075 6.6 4.2775 4.95 3.9375 3.25 C-1.34449593 2.05011955 -1.34449593 2.05011955 -6.0625 4.25 C-6.79215366 6.81282742 -6.79215366 6.81282742 -7.0625 9.25 C-7.3925 9.25 -7.7225 9.25 -8.0625 9.25 C-8.42816421 3.76503685 -8.42816421 3.76503685 -6.8671875 1.56640625 C-4.46721893 -0.18422018 -2.94231232 -0.08666605 0 0 Z " fill="#5876A9" transform="translate(114.0625,76.75)"/>
<path d="M0 0 C0 1.32 0 2.64 0 4 C-1.32 4 -2.64 4 -4 4 C-4 4.66 -4 5.32 -4 6 C-4.99 6 -5.98 6 -7 6 C-7.33 4.35 -7.66 2.7 -8 1 C-4.93251126 -0.86240388 -3.40254489 -1.2151946 0 0 Z " fill="#5A78C1" transform="translate(229,94)"/>
<path d="M0 0 C0.33 1.32 0.66 2.64 1 4 C0.01 4 -0.98 4 -2 4 C-2 4.66 -2 5.32 -2 6 C-3.875 8.125 -3.875 8.125 -6 10 C-6.66 10 -7.32 10 -8 10 C-7.44739574 6.68437443 -6.83174295 3.84937793 -5 1 C-2 0 -2 0 0 0 Z " fill="#2E5BA9" transform="translate(106,114)"/>
<path d="M0 0 C0.99 0 1.98 0 3 0 C2.625 1.9375 2.625 1.9375 2 4 C-1.21451269 5.60725635 -4.43612536 5.05748185 -8 5 C-8 3.68 -8 2.36 -8 1 C-6.865625 1.020625 -5.73125 1.04125 -4.5625 1.0625 C-1.18424326 1.41577477 -1.18424326 1.41577477 0 0 Z " fill="#6C9AD4" transform="translate(192,112)"/>
<path d="M0 0 C0.66 0.33 1.32 0.66 2 1 C2 2.32 2 3.64 2 5 C-0.31 5 -2.62 5 -5 5 C-5.66 6.32 -6.32 7.64 -7 9 C-9.97 8.505 -9.97 8.505 -13 8 C-13 6.35 -13 4.7 -13 3 C-12.67 3.99 -12.34 4.98 -12 6 C-10.02463255 5.65213292 -10.02463255 5.65213292 -8 5 C-7.67 4.34 -7.34 3.68 -7 3 C-4.69 3.33 -2.38 3.66 0 4 C0 2.68 0 1.36 0 0 Z " fill="#28477B" transform="translate(197,96)"/>
<path d="M0 0 C0.33 0 0.66 0 1 0 C2.7610915 11.65766007 2.7610915 11.65766007 0.0625 16.25 C-0.618125 17.1575 -1.29875 18.065 -2 19 C-3.56454159 14.97985339 -2.46223974 11.30074319 -1.5625 7.25 C-1.34110352 6.20392578 -1.34110352 6.20392578 -1.11523438 5.13671875 C-0.75131967 3.4227979 -0.37670932 1.71115419 0 0 Z " fill="#184087" transform="translate(102,100)"/>
<path d="M0 0 C0.66 0 1.32 0 2 0 C1.67 1.98 1.34 3.96 1 6 C0.34 6 -0.32 6 -1 6 C-1.433125 7.0828125 -1.433125 7.0828125 -1.875 8.1875 C-2.91666667 10.79166667 -3.95833333 13.39583333 -5 16 C-5.66 16 -6.32 16 -7 16 C-6.40165275 11.85701333 -4.99335715 8.81805623 -2.9375 5.1875 C-2.11572266 3.72376953 -2.11572266 3.72376953 -1.27734375 2.23046875 C-0.85582031 1.49441406 -0.43429688 0.75835937 0 0 Z " fill="#EBE804" transform="translate(65,70)"/>
<path d="M0 0 C0.66 0.37125 1.32 0.7425 2 1.125 C2.99 1.455 3.98 1.785 5 2.125 C4.67 2.785 4.34 3.445 4 4.125 C1.93359375 4.7578125 1.93359375 4.7578125 -0.5625 5.25 C-1.38878906 5.41757813 -2.21507813 5.58515625 -3.06640625 5.7578125 C-3.70449219 5.87898437 -4.34257813 6.00015625 -5 6.125 C-5 4.145 -5 2.165 -5 0.125 C-2 -0.875 -2 -0.875 0 0 Z " fill="#769DE1" transform="translate(103,131.875)"/>
<path d="M0 0 C0.33 0.66 0.66 1.32 1 2 C3.42459787 2.83492354 3.42459787 2.83492354 6 3 C6.66 2.34 7.32 1.68 8 1 C8.33 2.98 8.66 4.96 9 7 C5.38970831 7 2.44193324 6.03907418 -1 5 C-0.67 3.35 -0.34 1.7 0 0 Z " fill="#3767B9" transform="translate(108,86)"/>
<path d="M0 0 C0.99 0.99 1.98 1.98 3 3 C2.34 4.98 1.68 6.96 1 9 C0.67 8.34 0.34 7.68 0 7 C-0.99 7 -1.98 7 -3 7 C-3 7.66 -3 8.32 -3 9 C-3.66 9 -4.32 9 -5 9 C-4.42647107 5.12867972 -2.51295648 2.91827204 0 0 Z " fill="#C46012" transform="translate(75,119)"/>
<path d="M0 0 C0.66 0 1.32 0 2 0 C0.37319894 5.61985821 -2.03726966 10.95766087 -5 16 C-5.66 16.33 -6.32 16.66 -7 17 C-5.1668733 11.00067626 -2.92678249 5.55079437 0 0 Z " fill="#C5C501" transform="translate(64,76)"/>
<path d="M0 0 C0.33 0.66 0.66 1.32 1 2 C-0.21484375 4.3828125 -0.21484375 4.3828125 -1.9375 7.125 C-2.50339844 8.03507813 -3.06929688 8.94515625 -3.65234375 9.8828125 C-4.09707031 10.58148438 -4.54179688 11.28015625 -5 12 C-5.33 11.34 -5.66 10.68 -6 10 C-5.67 9.34 -5.34 8.68 -5 8 C-6.32 7.67 -7.64 7.34 -9 7 C-9 6.34 -9 5.68 -9 5 C-7.68 5.33 -6.36 5.66 -5 6 C-3.35 4.02 -1.7 2.04 0 0 Z " fill="#BF641D" transform="translate(73,129)"/>
<path d="M0 0 C1.32 0 2.64 0 4 0 C2.55049545 3.7910119 0.84827434 7.3874638 -1 11 C-1.33 9.68 -1.66 8.36 -2 7 C-2.66 7 -3.32 7 -4 7 C-2.79618552 4.50638429 -1.54571278 2.31856917 0 0 Z " fill="#F7F625" transform="translate(113,19)"/>
<path d="M0 0 C6.15234375 -0.09765625 6.15234375 -0.09765625 8 0 C9 1 9 1 9.0625 3.5625 C9.041875 4.366875 9.02125 5.17125 9 6 C8.01 6.495 8.01 6.495 7 7 C6.34 6.34 5.68 5.68 5 5 C5.33 4.01 5.66 3.02 6 2 C4.02 2 2.04 2 0 2 C0 1.34 0 0.68 0 0 Z " fill="#4DB858" transform="translate(175,112)"/>
<path d="M0 0 C0.66 0.33 1.32 0.66 2 1 C1.67 2.65 1.34 4.3 1 6 C-2 6 -5 6 -8 6 C-5.38485683 3.87961365 -2.80362384 1.86908256 0 0 Z " fill="#507ABB" transform="translate(212,109)"/>
<path d="M0 0 C0.33 1.32 0.66 2.64 1 4 C1.33 4.66 1.66 5.32 2 6 C2.33 6.99 2.66 7.98 3 9 C1.35 8.67 -0.3 8.34 -2 8 C-2.33 8.99 -2.66 9.98 -3 11 C-3.66 10.67 -4.32 10.34 -5 10 C-3.35 6.7 -1.7 3.4 0 0 Z " fill="#49B241" transform="translate(149,71)"/>
<path d="M0 0 C0.99 0 1.98 0 3 0 C3.34833144 4.87664009 2.41685712 7.77050005 0 12 C-0.33 12 -0.66 12 -1 12 C-1 9.36 -1 6.72 -1 4 C-0.34 4 0.32 4 1 4 C0.67 2.68 0.34 1.36 0 0 Z " fill="#D96D09" transform="translate(105,62)"/>
<path d="M0 0 C2.625 1.4375 2.625 1.4375 5 3 C4.67 3.99 4.34 4.98 4 6 C1.9375 6.6875 1.9375 6.6875 0 7 C-0.66 5.02 -1.32 3.04 -2 1 C-1.34 0.67 -0.68 0.34 0 0 Z " fill="#123F8B" transform="translate(218,102)"/>
<path d="M0 0 C2.64 0 5.28 0 8 0 C8 1.32 8 2.64 8 4 C5.03 3.67 2.06 3.34 -1 3 C-0.67 2.01 -0.34 1.02 0 0 Z " fill="#4A74BC" transform="translate(189,96)"/>
<path d="M0 0 C0.82638376 2.89234315 1 4.88742431 1 8 C4.63 8 8.26 8 12 8 C12 8.33 12 8.66 12 9 C10.04196493 9.05389087 8.08351091 9.09274217 6.125 9.125 C5.03445312 9.14820313 3.94390625 9.17140625 2.8203125 9.1953125 C0 9 0 9 -2 7 C-1.6730244 4.38419521 -1.17960932 2.35921863 0 0 Z " fill="#409E3A" transform="translate(118,137)"/>
<path d="M0 0 C0.66 0.33 1.32 0.66 2 1 C2 3.97 2 6.94 2 10 C0.68 9.67 -0.64 9.34 -2 9 C-2 7.02 -2 5.04 -2 3 C-1.34 3 -0.68 3 0 3 C0 2.01 0 1.02 0 0 Z " fill="#3AC62F" transform="translate(165,113)"/>
<path d="M0 0 C1.32 0 2.64 0 4 0 C4.33 2.31 4.66 4.62 5 7 C4.67 6.01 4.34 5.02 4 4 C0.72226496 4.75150023 0.72226496 4.75150023 -1 8 C-1.04241723 5.66705225 -1.04092937 3.33297433 -1 1 C-0.67 0.67 -0.34 0.34 0 0 Z " fill="#2F58A1" transform="translate(199,107)"/>
<path d="M0 0 C0.66 0 1.32 0 2 0 C2 0.99 2 1.98 2 3 C2.99 3.33 3.98 3.66 5 4 C3.7508258 7.45925163 2.32472205 10.14693203 0 13 C0.185625 11.783125 0.37125 10.56625 0.5625 9.3125 C0.98993182 5.97022061 0.92258883 3.28031583 0 0 Z " fill="#CA6619" transform="translate(88,92)"/>
<path d="M0 0 C3.3 0 6.6 0 10 0 C9.34 0.66 8.68 1.32 8 2 C7.34 1.67 6.68 1.34 6 1 C6.185625 1.61875 6.37125 2.2375 6.5625 2.875 C7 5 7 5 6 7 C5.34 7 4.68 7 4 7 C3.566875 5.824375 3.566875 5.824375 3.125 4.625 C2.15087746 1.90328368 2.15087746 1.90328368 0 0 Z " fill="#DC730E" transform="translate(18,57)"/>
<path d="M0 0 C0.33 0 0.66 0 1 0 C0.67 2.97 0.34 5.94 0 9 C-0.99 9 -1.98 9 -3 9 C-3 9.99 -3 10.98 -3 12 C-3.66 12 -4.32 12 -5 12 C-3.68938409 7.76570244 -2.05643741 3.92592596 0 0 Z " fill="#EFF12D" transform="translate(70,45)"/>
<path d="M0 0 C0.33 0.66 0.66 1.32 1 2 C0.13986463 4.42188287 -0.77684099 6.71765578 -1.8125 9.0625 C-2.08642578 9.71283203 -2.36035156 10.36316406 -2.64257812 11.03320312 C-4.74175664 15.87087832 -4.74175664 15.87087832 -7 17 C-6.37954537 12.76677156 -4.89476441 9.47709705 -2.9375 5.6875 C-2.38964844 4.61886719 -1.84179688 3.55023438 -1.27734375 2.44921875 C-0.64505859 1.23685547 -0.64505859 1.23685547 0 0 Z " fill="#51B84A" transform="translate(148,105)"/>
<path d="M0 0 C1.98 0 3.96 0 6 0 C6 1.65 6 3.3 6 5 C3.69 5.33 1.38 5.66 -1 6 C-0.67 4.02 -0.34 2.04 0 0 Z " fill="#3862AB" transform="translate(190,108)"/>
<path d="M0 0 C0.33 0 0.66 0 1 0 C1 1.65 1 3.3 1 5 C1.66 5 2.32 5 3 5 C3.33 5.66 3.66 6.32 4 7 C4.99 7.66 5.98 8.32 7 9 C4.625 9.625 4.625 9.625 2 10 C0 8 0 8 -0.1953125 6.0546875 C-0.13020833 4.03645833 -0.06510417 2.01822917 0 0 Z " fill="#C35A06" transform="translate(27,132)"/>
<path d="M0 0 C0 1.98 0 3.96 0 6 C0.66 6.33 1.32 6.66 2 7 C1.01 7 0.02 7 -1 7 C-1 6.34 -1 5.68 -1 5 C-2.65 5 -4.3 5 -6 5 C-5 2 -5 2 -3 0.8125 C-1 0 -1 0 0 0 Z " fill="#375EA6" transform="translate(234,107)"/>
<path d="M0 0 C-0.66 0.66 -1.32 1.32 -2 2 C-2.66 1.67 -3.32 1.34 -4 1 C-4 1.66 -4 2.32 -4 3 C-5.32 3.33 -6.64 3.66 -8 4 C-8 2.68 -8 1.36 -8 0 C-5.13822943 -1.43088528 -3.06624227 -0.59991697 0 0 Z " fill="#5581CD" transform="translate(117,79)"/>
<path d="M0 0 C0.99 0 1.98 0 3 0 C3 0.66 3 1.32 3 2 C3.99 2 4.98 2 6 2 C6 2.99 6 3.98 6 5 C4.02 5 2.04 5 0 5 C0 3.35 0 1.7 0 0 Z " fill="#7399DF" transform="translate(230,112)"/>
<path d="M0 0 C0.99 0 1.98 0 3 0 C2.88570603 1.77155654 2.75816963 3.54226229 2.625 5.3125 C2.52058594 6.79169922 2.52058594 6.79169922 2.4140625 8.30078125 C2 11 2 11 0 14 C0 9.38 0 4.76 0 0 Z " fill="#6886BD" transform="translate(108,128)"/>
<path d="M0 0 C0.66 0 1.32 0 2 0 C1.125 4.875 1.125 4.875 0 6 C-1.66617115 6.04063832 -3.33388095 6.042721 -5 6 C-5 5.34 -5 4.68 -5 4 C-4.01 3.67 -3.02 3.34 -2 3 C-1.34 2.01 -0.68 1.02 0 0 Z " fill="#A5C4FA" transform="translate(218,117)"/>
<path d="M0 0 C1.32 0 2.64 0 4 0 C4.33 1.98 4.66 3.96 5 6 C4.67 5.34 4.34 4.68 4 4 C2.02 4.99 2.02 4.99 0 6 C0 4.02 0 2.04 0 0 Z " fill="#DB7112" transform="translate(36,57)"/>
<path d="M0 0 C0.66 0.33 1.32 0.66 2 1 C2 1.66 2 2.32 2 3 C2.99 3 3.98 3 5 3 C5 3.66 5 4.32 5 5 C2.36 5.33 -0.28 5.66 -3 6 C-3 5.34 -3 4.68 -3 4 C-2.34 3.67 -1.68 3.34 -1 3 C-0.67 2.01 -0.34 1.02 0 0 Z " fill="#2F5BA3" transform="translate(220,97)"/>
<path d="M0 0 C3 1 3 1 4 3 C4.66 3 5.32 3 6 3 C6 3.66 6 4.32 6 5 C4.35 5.66 2.7 6.32 1 7 C0.67 4.69 0.34 2.38 0 0 Z " fill="#2852A3" transform="translate(104,91)"/>
<path d="M0 0 C1.10191901 4.40767604 0.58706842 5.8922935 -1 10 C-2.32 9.67 -3.64 9.34 -5 9 C-3.35 6.03 -1.7 3.06 0 0 Z " fill="#A5A40A" transform="translate(59,90)"/>
<path d="M0 0 C0.33 0.66 0.66 1.32 1 2 C0.26821134 4.07196631 -0.55899003 6.1108552 -1.4375 8.125 C-1.91058594 9.22070312 -2.38367188 10.31640625 -2.87109375 11.4453125 C-3.24363281 12.28835937 -3.61617188 13.13140625 -4 14 C-5.06528748 11.26980214 -5.07998186 10.20701188 -4.00390625 7.421875 C-3.52824219 6.54015625 -3.05257812 5.6584375 -2.5625 4.75 C-2.08941406 3.85796875 -1.61632812 2.9659375 -1.12890625 2.046875 C-0.75636719 1.37140625 -0.38382812 0.6959375 0 0 Z " fill="#CACC00" transform="translate(71,62)"/>
<path d="M0 0 C-0.99 1.485 -0.99 1.485 -2 3 C-3.9453125 3.29296875 -3.9453125 3.29296875 -6.125 3.1875 C-7.40375 3.125625 -8.6825 3.06375 -10 3 C-9.67 2.01 -9.34 1.02 -9 0 C-5.52176885 -1.15941038 -3.54104422 -0.70820884 0 0 Z " fill="#D38514" transform="translate(90,57)"/>
<path d="M0 0 C0.33 0 0.66 0 1 0 C1.48461538 6.3 1.48461538 6.3 -0.6875 9.4375 C-3.38410809 11.25953249 -4.81126451 11.35430394 -8 11 C-7.401875 10.731875 -6.80375 10.46375 -6.1875 10.1875 C-3.90204582 8.94682487 -2.55935721 8.07914294 -1 6 C-0.2730774 2.89160979 -0.2730774 2.89160979 0 0 Z " fill="#4F618A" transform="translate(221,114)"/>
<path d="M0 0 C0.33 0 0.66 0 1 0 C1 2.31 1 4.62 1 7 C0.34 7 -0.32 7 -1 7 C-1.33 8.32 -1.66 9.64 -2 11 C-2.66 11 -3.32 11 -4 11 C-2.7874262 7.27566618 -1.49140021 3.62197194 0 0 Z " fill="#4DAC45" transform="translate(142,85)"/>
<path d="M0 0 C0.66 0.33 1.32 0.66 2 1 C-0.475 5.455 -0.475 5.455 -3 10 C-3.66 8.68 -4.32 7.36 -5 6 C-4.34 5.67 -3.68 5.34 -3 5 C-1.9590934 3.35857037 -0.95495674 1.69287785 0 0 Z " fill="#F6F534" transform="translate(109,30)"/>
<path d="M0 0 C1.423125 0.495 1.423125 0.495 2.875 1 C5.77062452 2.10159191 5.77062452 2.10159191 8 2 C8 2.66 8 3.32 8 4 C5 5 5 5 2 4 C1.01 4.495 1.01 4.495 0 5 C0 3.35 0 1.7 0 0 Z " fill="#3866B9" transform="translate(104,118)"/>
<path d="M0 0 C0.66 0.33 1.32 0.66 2 1 C2 1.99 2 2.98 2 4 C2.66 3.67 3.32 3.34 4 3 C4 3.99 4 4.98 4 6 C2.0625 6.5625 2.0625 6.5625 0 7 C-1 6 -1 6 -1.125 3.5 C-1 1 -1 1 0 0 Z " fill="#3BC731" transform="translate(175,116)"/>
<path d="M0 0 C1.60031344 3.20062687 0.03173691 5.72271806 -1 9 C-1.66 9 -2.32 9 -3 9 C-3.33 8.01 -3.66 7.02 -4 6 C-2.0625 2.8125 -2.0625 2.8125 0 0 Z " fill="#EDE902" transform="translate(55,90)"/>
<path d="M0 0 C0.66 0.33 1.32 0.66 2 1 C0.02 3.97 -1.96 6.94 -4 10 C-4.33 9.01 -4.66 8.02 -5 7 C-3.58511552 4.23760649 -2.19636905 2.19636905 0 0 Z " fill="#D6D400" transform="translate(77,52)"/>
<path d="M0 0 C0.97353743 3.02878312 1.24612776 5.02846457 0 8 C-2.0625 9.75 -2.0625 9.75 -4 11 C-3.52269162 9.5410574 -3.04308958 8.08286504 -2.5625 6.625 C-2.29566406 5.81289062 -2.02882813 5.00078125 -1.75390625 4.1640625 C-1 2 -1 2 0 0 Z " fill="#48AC41" transform="translate(123,126)"/>
<path d="M0 0 C0.99 0.33 1.98 0.66 3 1 C4.66362417 1.34820041 6.32995171 1.68404492 8 2 C6.68 2.33 5.36 2.66 4 3 C4 3.66 4 4.32 4 5 C3.01 5 2.02 5 1 5 C0.67 3.35 0.34 1.7 0 0 Z " fill="#4D71B6" transform="translate(221,95)"/>
<path d="M0 0 C1.13643966 3.40931897 0.86747764 4.00335456 -0.4375 7.1875 C-0.72496094 7.90292969 -1.01242188 8.61835937 -1.30859375 9.35546875 C-1.53675781 9.89816406 -1.76492187 10.44085938 -2 11 C-2.66 11 -3.32 11 -4 11 C-3.52269162 9.5410574 -3.04308958 8.08286504 -2.5625 6.625 C-2.29566406 5.81289062 -2.02882813 5.00078125 -1.75390625 4.1640625 C-1 2 -1 2 0 0 Z " fill="#48AD43" transform="translate(128,115)"/>
<path d="M0 0 C0.33 0.99 0.66 1.98 1 3 C2.65 2.67 4.3 2.34 6 2 C6.33 3.32 6.66 4.64 7 6 C4.69 5.67 2.38 5.34 0 5 C0 3.35 0 1.7 0 0 Z " fill="#1F4890" transform="translate(184,99)"/>
<path d="M0 0 C0.33 0.66 0.66 1.32 1 2 C0.67 2.99 0.34 3.98 0 5 C0.66 5.33 1.32 5.66 2 6 C0.35 6.66 -1.3 7.32 -3 8 C-2.45276317 4.62537285 -1.9451 2.91765 0 0 Z " fill="#EDEF23" transform="translate(61,63)"/>
<path d="M0 0 C0.33 0 0.66 0 1 0 C1.33 3.3 1.66 6.6 2 10 C1.01 10 0.02 10 -1 10 C-0.67 6.7 -0.34 3.4 0 0 Z " fill="#0D2E79" transform="translate(102,100)"/>
<path d="M0 0 C0.33 0.66 0.66 1.32 1 2 C1.66 2 2.32 2 3 2 C2.67 3.32 2.34 4.64 2 6 C0.68 5.34 -0.64 4.68 -2 4 C-1.34 2.68 -0.68 1.36 0 0 Z " fill="#0D3780" transform="translate(201,103)"/>
</svg>
